<?xml version="1.0" encoding="utf-8"?>
<!-- Generator: Adobe Illustrator 16.0.0, SVG Export Plug-In . SVG Version: 6.00 Build 0)  -->
<!DOCTYPE svg PUBLIC "-//W3C//DTD SVG 1.1//EN" "http://www.w3.org/Graphics/SVG/1.1/DTD/svg11.dtd" [
	<!ENTITY ns_extend "http://ns.adobe.com/Extensibility/1.0/">
	<!ENTITY ns_ai "http://ns.adobe.com/AdobeIllustrator/10.0/">
	<!ENTITY ns_graphs "http://ns.adobe.com/Graphs/1.0/">
	<!ENTITY ns_vars "http://ns.adobe.com/Variables/1.0/">
	<!ENTITY ns_imrep "http://ns.adobe.com/ImageReplacement/1.0/">
	<!ENTITY ns_sfw "http://ns.adobe.com/SaveForWeb/1.0/">
	<!ENTITY ns_custom "http://ns.adobe.com/GenericCustomNamespace/1.0/">
	<!ENTITY ns_adobe_xpath "http://ns.adobe.com/XPath/1.0/">
]>
<svg version="1.1" id="Forma_1_1_" xmlns:x="&ns_extend;" xmlns:i="&ns_ai;" xmlns:graph="&ns_graphs;"
	 xmlns="http://www.w3.org/2000/svg" xmlns:xlink="http://www.w3.org/1999/xlink" x="0px" y="0px" width="16px" height="16px"
	 viewBox="0 0 16 16" enable-background="new 0 0 16 16" xml:space="preserve">
<metadata>
	<sfw  xmlns="&ns_sfw;">
		<slices></slices>
		<sliceSourceBounds  height="16.003" width="15.976" y="217.001" x="448.992" bottomLeftOrigin="true"></sliceSourceBounds>
	</sfw>
</metadata>
<g id="Forma_1">
	<g>
		<path fill="#FFFFFF" d="M8.745,8l7.076-7.139c0.197-0.198,0.197-0.52,0-0.718c-0.196-0.197-0.515-0.197-0.711,0L7.98,7.336
			l-7.13-7.191c-0.196-0.198-0.514-0.198-0.711,0c-0.196,0.198-0.196,0.519,0,0.717L7.216,8l-7.072,7.133
			c-0.196,0.198-0.196,0.52,0,0.718c0.098,0.099,0.227,0.148,0.355,0.148c0.129,0,0.258-0.05,0.355-0.148L7.98,8.663l7.125,7.188
			c0.098,0.099,0.227,0.148,0.355,0.148c0.128,0,0.257-0.05,0.355-0.148c0.195-0.198,0.195-0.52,0-0.718L8.745,8z"/>
	</g>
</g>
</svg>
