<?xml version="1.0" encoding="utf-8"?>
<!-- Generator: Adobe Illustrator 16.0.0, SVG Export Plug-In . SVG Version: 6.00 Build 0)  -->
<!DOCTYPE svg PUBLIC "-//W3C//DTD SVG 1.1//EN" "http://www.w3.org/Graphics/SVG/1.1/DTD/svg11.dtd">
<svg version="1.1" id="Layer_1" xmlns="http://www.w3.org/2000/svg" xmlns:xlink="http://www.w3.org/1999/xlink" x="0px" y="0px"
	 width="30px" height="30px" viewBox="0 0 30 30" enable-background="new 0 0 30 30" xml:space="preserve">
<g id="Forma_1_copy_2">
	<g>
		<path fill="#0A57F4" d="M15,0.5C6.729,0.5-0.002,6.662-0.002,14.236c0,2.648,0.823,5.213,2.384,7.431
			c-0.295,3.326-1.087,5.795-2.238,6.965c-0.152,0.154-0.19,0.391-0.094,0.586c0.085,0.175,0.26,0.282,0.448,0.282
			c0.023,0,0.046-0.002,0.069-0.005c0.203-0.029,4.907-0.718,8.31-2.717c1.933,0.793,3.991,1.195,6.123,1.195
			c8.272,0,15.001-6.162,15.001-13.737C30.002,6.662,23.272,0.5,15,0.5z M8,16.271c-1.104,0-2-0.912-2-2.035
			c0-1.122,0.897-2.034,2-2.034c1.103,0,2,0.912,2,2.034C10,15.359,9.103,16.271,8,16.271z M15,16.271c-1.103,0-2-0.912-2-2.035
			c0-1.122,0.897-2.034,2-2.034s2,0.912,2,2.034C17,15.359,16.104,16.271,15,16.271z M22.002,16.271
			c-1.104,0-2.001-0.912-2.001-2.035c0-1.122,0.897-2.034,2.001-2.034c1.103,0,2,0.912,2,2.034
			C24.002,15.359,23.104,16.271,22.002,16.271z"/>
	</g>
</g>
</svg>
