<?xml version="1.0" encoding="utf-8"?>
<!-- Generator: Adobe Illustrator 16.0.0, SVG Export Plug-In . SVG Version: 6.00 Build 0)  -->
<!DOCTYPE svg PUBLIC "-//W3C//DTD SVG 1.1//EN" "http://www.w3.org/Graphics/SVG/1.1/DTD/svg11.dtd">
<svg version="1.1" id="Layer_1" xmlns="http://www.w3.org/2000/svg" xmlns:xlink="http://www.w3.org/1999/xlink" x="0px" y="0px"
	 width="41px" height="41px" viewBox="0 0 41 41" enable-background="new 0 0 41 41" xml:space="preserve">
<g>
	<path fill="#FFFFFF" d="M17.28,22.722c0,1.162-0.942,2.105-2.105,2.105c-1.163,0-2.105-0.943-2.105-2.105
		c0-1.164,0.942-2.105,2.105-2.105C16.338,20.616,17.28,21.56,17.28,22.722z M25.825,20.616c-1.163,0-2.105,0.941-2.105,2.105
		c0,1.162,0.942,2.105,2.105,2.105c1.162,0,2.105-0.943,2.105-2.105C27.93,21.56,26.987,20.616,25.825,20.616z M41,21.548v4
		c0,2.01-1.628,3.637-3.637,3.637h-2.64c-2.615,7.262-9.293,11.648-14.224,11.648c-4.931,0-11.609-4.387-14.224-11.648H3.637
		C1.628,29.185,0,27.558,0,25.548v-4c0-1.382,0.771-2.584,1.907-3.2C1.945,12.668,3.6,8.232,6.834,5.166
		C10.042,2.124,14.64,0.581,20.5,0.581s10.458,1.542,13.666,4.584c3.233,3.067,4.889,7.503,4.928,13.183
		C40.229,18.963,41,20.166,41,21.548z M33.303,22.735c0-0.938-0.048-1.816-0.119-2.668c-1.614-1.477-4.544-2.597-8.242-3.014
		c0.485,0.546,0.905,1.264,1.159,2.209c-2.265-1.784-6.711-1.359-10.074-5.353c-0.193-0.223-0.36-0.436-0.504-0.631
		c-0.002-0.002-0.003-0.004-0.005-0.006h0c-0.598-0.809-0.802-1.291-0.814-0.757c-0.099,4.59-3.352,8.168-6.964,8.673
		c-0.023,0.504-0.042,1.014-0.042,1.547c0,1.939,0.317,3.707,0.855,5.301c2.029,2.447,5.38,3.139,8.347,3.322
		c0.55-0.877,1.786-1.488,3.225-1.488c1.951,0,3.532,1.123,3.532,2.508s-1.581,2.508-3.532,2.508c-1.5,0-2.779-0.666-3.291-1.604
		c-2.073-0.119-4.352-0.473-6.383-1.432c2.856,4.209,7.284,6.436,10.049,6.436C24.845,38.286,33.303,32.798,33.303,22.735z
		 M36.903,17.911C36.672,7.999,31.015,2.763,20.5,2.763S4.328,7.999,4.096,17.911h1.399C6.007,14.57,7.088,11.823,8.73,9.71
		c2.616-3.366,6.576-5.073,11.77-5.073s9.153,1.707,11.77,5.073c1.642,2.113,2.724,4.86,3.235,8.201H36.903L36.903,17.911z"/>
</g>
</svg>
